<svg height="16.2" viewBox="0 0 14.7 16.2" width="14.7" xmlns="http://www.w3.org/2000/svg">
    <g data-name="Icon feather-share-2" id="Icon_feather-share-2" transform="translate(-3.9 -2.4)">
        <path d="M27,5.25A2.25,2.25,0,1,1,24.75,3,2.25,2.25,0,0,1,27,5.25Z" data-name="Path 1487"
            fill="none" id="Path_1487"
            stroke="#000" stroke-linecap="round" stroke-linejoin="round" stroke-width="1.2"
            transform="translate(-9)" />
        <path d="M9,15.75A2.25,2.25,0,1,1,6.75,13.5,2.25,2.25,0,0,1,9,15.75Z" data-name="Path 1488"
            fill="none"
            id="Path_1488" stroke="#000" stroke-linecap="round" stroke-linejoin="round"
            stroke-width="1.2" transform="translate(0 -5.25)" />
        <path d="M27,26.25A2.25,2.25,0,1,1,24.75,24,2.25,2.25,0,0,1,27,26.25Z" data-name="Path 1489"
            fill="none"
            id="Path_1489" stroke="#000" stroke-linecap="round" stroke-linejoin="round"
            stroke-width="1.2" transform="translate(-9 -10.5)" />
        <path d="M12.885,20.265l5.122,2.985" data-name="Path 1490" fill="none"
            id="Path_1490" stroke="#000" stroke-linecap="round" stroke-linejoin="round"
            stroke-width="1.2" transform="translate(-4.193 -8.632)" />
        <path d="M18,9.765,12.885,12.75" data-name="Path 1491" fill="none"
            id="Path_1491" stroke="#000" stroke-linecap="round" stroke-linejoin="round"
            stroke-width="1.2" transform="translate(-4.193 -3.382)" />
    </g>
</svg>
